<svg version="1.1" id="Layer_1" xmlns="http://www.w3.org/2000/svg" xmlns:xlink="http://www.w3.org/1999/xlink" x="0px" y="0px"
	 width="100%" viewBox="0 0 429 230" enable-background="new 0 0 429 230" xml:space="preserve">
<path fill="none" opacity="1.000000" stroke="none"
	d="
M260.000000,231.000000 
	C173.333359,231.000000 87.166725,231.000000 1.000069,231.000000 
	C1.000046,154.333389 1.000046,77.666786 1.000023,1.000131 
	C143.999893,1.000087 286.999786,1.000087 429.999756,1.000044 
	C429.999817,77.666527 429.999817,154.333054 429.999908,230.999786 
	C373.500000,231.000000 317.000000,231.000000 260.000000,231.000000 
M259.309448,84.156418 
	C257.524231,87.071114 255.738998,89.985802 253.307236,93.173340 
	C250.835785,97.102730 248.364349,101.032120 245.260529,105.225883 
	C243.979385,106.839546 242.525803,108.347023 241.453171,110.089073 
	C239.254776,113.659485 237.260727,117.355728 235.020508,121.829124 
	C235.331207,123.901649 235.641907,125.974167 236.011246,128.800018 
	C237.659531,133.536377 243.432510,137.101730 249.922653,136.976883 
	C256.949310,136.927399 263.975983,136.877899 271.867859,136.977448 
	C273.912201,136.929260 275.956573,136.881058 278.772369,136.981140 
	C280.197449,136.698517 281.622559,136.415878 283.692566,135.847763 
	C287.863831,129.666229 292.011475,123.468613 296.211578,117.306770 
	C303.441925,106.699402 310.651398,96.076965 317.992737,85.546692 
	C319.777557,82.986649 319.213531,81.154343 316.406860,81.130707 
	C308.963043,81.068024 301.514648,81.554535 294.103180,81.015930 
	C296.782654,72.903053 293.256470,64.953156 285.012451,63.164745 
	C278.889374,61.836445 272.350250,62.425949 265.174927,62.021908 
	C259.461700,61.878479 255.125977,64.376564 251.245209,69.216354 
	C249.798126,71.464417 248.351044,73.712486 246.268265,76.252380 
	C241.753220,83.076950 237.270844,89.923721 232.672943,96.692001 
	C232.209763,97.373825 231.070709,97.894646 230.206497,97.957611 
	C224.516830,98.372139 218.816498,98.640572 213.223999,98.257240 
	C214.469101,97.259880 215.897995,96.422821 216.929977,95.239586 
	C224.620819,86.421448 228.222427,76.100235 226.919403,64.482254 
	C225.870453,55.129528 222.544617,46.208473 215.277405,40.081432 
	C205.861526,32.142834 194.649841,28.058504 181.106949,29.016346 
	C177.368820,29.343693 173.625977,29.992435 169.893448,29.937689 
	C159.013611,29.778116 148.136627,29.372995 137.261459,28.982204 
	C134.471985,28.881969 132.947723,29.561365 132.963669,32.804539 
	C133.096725,59.869167 133.116058,86.934349 133.019211,114.925949 
	C133.015030,120.574928 133.217361,126.234253 132.935226,131.869324 
	C132.741959,135.729645 133.868866,137.249023 137.950073,137.074753 
	C144.915573,136.777313 151.911636,136.784348 158.877792,137.073898 
	C162.794861,137.236725 164.217590,136.046097 164.087112,132.035812 
	C163.838730,124.401711 164.031387,116.753258 164.969986,109.029694 
	C184.889526,109.021347 204.809265,109.060211 224.728485,108.975510 
	C230.605118,108.950523 236.249847,107.501709 239.810989,102.502525 
	C245.492569,94.526688 250.691696,86.207161 256.789703,77.991257 
	C257.897369,76.675529 259.005035,75.359802 260.787994,73.738876 
	C262.944397,73.000534 265.100830,72.262192 267.836609,71.325493 
	C266.853119,73.188728 266.403717,74.040192 265.321899,75.171638 
	C263.532990,78.077568 261.744080,80.983498 259.309448,84.156418 
z"/>
<path fill="#FDB2BF" opacity="1.000000" stroke="none" 
	d="
M133.169708,113.999367 
	C133.116058,86.934349 133.096725,59.869167 132.963669,32.804539 
	C132.947723,29.561365 134.471985,28.881969 137.261459,28.982204 
	C148.136627,29.372995 159.013611,29.778116 169.893448,29.937689 
	C173.625977,29.992435 177.368820,29.343693 181.636261,29.451057 
	C183.025909,30.561638 183.800903,31.639503 184.761444,31.843451 
	C188.813843,32.703880 192.897446,33.637566 197.013672,33.934895 
	C208.252014,34.746681 220.189865,47.610512 221.625916,55.530746 
	C223.081650,63.559643 222.414902,72.008743 222.267044,80.266441 
	C222.232986,82.168266 220.710236,84.164993 219.548004,85.900742 
	C216.801270,90.002930 213.859360,93.974434 210.636932,98.010605 
	C209.276642,98.515709 208.275772,99.008972 207.274887,99.502243 
	C207.384064,100.220230 207.493256,100.938217 207.602432,101.656204 
	C210.560120,101.656204 213.517807,101.659805 216.475494,101.655128 
	C219.085800,101.651001 221.891312,101.023994 224.259018,101.777260 
	C227.520905,102.815002 230.152496,102.593727 232.482132,100.264641 
	C234.446533,98.300697 236.171066,96.096840 238.225830,94.207680 
	C238.966690,95.278419 239.483505,96.140648 239.835419,97.300552 
	C236.399216,104.196411 230.183731,104.879692 224.002075,104.936943 
	C205.575531,105.107597 187.146286,104.969688 168.718460,105.043198 
	C166.810593,105.050804 164.905151,105.666939 162.633820,106.098389 
	C161.513626,108.084709 160.202545,109.945679 160.106796,111.867195 
	C159.817490,117.672874 159.869858,123.506065 160.048828,129.320541 
	C160.151550,132.657913 159.158646,134.176529 155.550354,134.071487 
	C151.421097,133.951294 147.277542,134.470047 143.136948,134.558853 
	C135.490829,134.722855 135.003021,134.199997 135.000107,126.607162 
	C134.999008,123.780296 135.195496,120.933891 134.916931,118.134712 
	C134.775391,116.712387 133.779419,115.375099 133.169708,113.999367 
M186.022736,55.009747 
	C178.759094,55.009747 171.495468,55.009747 163.799698,55.009747 
	C163.799698,64.632324 163.799698,73.673645 163.799698,82.832520 
	C164.745834,82.929749 165.873932,83.045677 167.043182,83.940704 
	C168.967743,89.602600 173.677505,86.331253 177.084137,86.882278 
	C180.668976,87.462128 183.876617,86.266220 185.718201,82.013275 
	C187.464203,81.306511 189.210205,80.599739 191.091583,80.502884 
	C194.999802,82.483009 195.466873,78.583221 196.867111,76.780792 
	C197.264313,76.269493 195.783173,74.298996 195.014893,72.112648 
	C194.966568,69.428329 194.918243,66.744003 195.546097,63.940334 
	C196.221649,63.312267 196.897217,62.684200 197.572769,62.056141 
	C194.660400,59.118988 191.748032,56.181835 188.835678,53.244682 
	C188.206039,53.872337 187.576385,54.499989 186.022736,55.009747 
z"/>
<path fill="#F8AEBC" opacity="1.000000" stroke="none" 
	d="
M235.952591,128.046692 
	C235.641907,125.974167 235.331207,123.901649 235.441803,121.352692 
	C239.034622,118.077705 242.731049,115.657837 245.144409,112.312378 
	C246.262024,110.763123 248.947235,107.688965 245.892914,104.961510 
	C248.364349,101.032120 250.835785,97.102730 253.711472,93.356529 
	C255.809967,93.896706 257.504211,94.253700 259.202728,94.611588 
	C259.478210,96.430138 259.758362,98.279442 259.902588,100.444656 
	C257.506592,104.073212 255.246582,107.385872 252.939926,110.766884 
	C255.522629,112.067970 257.352692,112.989899 259.780701,114.213043 
	C262.463196,110.501884 265.212555,106.698212 267.981598,103.223297 
	C268.673248,103.956520 269.345245,104.360992 270.017212,104.765442 
	C270.788391,103.111900 271.559631,101.458382 272.330841,99.804863 
	C273.189697,100.471123 274.048584,101.137390 274.907440,101.803650 
	C274.270996,104.535172 273.634583,107.266693 272.796631,110.016922 
	C272.392944,110.178879 272.190735,110.322136 271.988556,110.465393 
	C272.106384,110.510063 272.275177,110.627396 272.333130,110.586731 
	C272.574036,110.417633 272.781494,110.200905 273.278168,110.009277 
	C273.739594,110.024788 273.924103,110.032684 274.056030,110.400009 
	C272.680511,112.749023 271.371033,114.747719 270.030548,116.725433 
	C268.873810,118.432068 267.793274,121.459114 266.485626,121.567444 
	C261.705414,121.963432 261.435150,124.295929 262.905731,128.168854 
	C265.422577,128.168854 268.210846,128.168854 270.986023,128.523010 
	C270.983185,130.584488 270.993439,132.291824 271.002991,134.352814 
	C271.002411,135.413773 271.002533,136.121094 271.002625,136.828400 
	C263.975983,136.877899 256.949310,136.927399 249.437378,136.545349 
	C245.072937,133.244507 241.205185,130.359283 237.283676,127.549057 
	C237.069061,127.395264 236.406586,127.866432 235.952591,128.046692 
M253.807678,124.107727 
	C255.356583,124.449883 257.606903,125.563194 256.431824,122.279465 
	C255.269913,119.032547 249.797531,116.129921 246.587860,117.179611 
	C244.233368,117.949615 241.265320,119.116447 245.010742,122.856186 
	C245.739105,124.227898 246.175568,126.422119 247.254807,126.805130 
	C249.724411,127.681564 252.230270,127.114723 253.807678,124.107727 
z"/>
<path fill="#F7B5C1" opacity="1.000000" stroke="none" 
	d="
M271.435242,136.902924 
	C271.002533,136.121094 271.002411,135.413773 271.369202,134.296616 
	C274.528656,132.996201 277.357513,131.304016 280.104034,131.428406 
	C283.181305,131.567749 284.427765,130.680145 285.289856,127.831192 
	C287.767792,124.523140 289.955902,121.386253 292.874603,117.201927 
	C289.103882,117.560455 286.995117,117.760956 284.945740,117.604576 
	C290.804718,108.581192 296.604279,99.914703 302.496979,91.108955 
	C297.265015,91.108955 292.149994,91.108955 287.036621,90.745850 
	C286.889984,88.885712 286.741699,87.388695 286.593445,85.891678 
	C284.697174,86.308823 282.800934,86.725967 280.556396,87.219742 
	C280.405518,86.633553 280.179779,85.756569 280.085022,84.557571 
	C281.868835,81.158417 283.521729,78.081276 285.526947,75.023270 
	C288.486816,77.545845 291.094330,80.049278 293.711914,82.562347 
	C293.552887,82.892708 293.810455,82.357628 294.068054,81.822556 
	C301.514648,81.554535 308.963043,81.068024 316.406860,81.130707 
	C319.213531,81.154343 319.777557,82.986649 317.992737,85.546692 
	C310.651398,96.076965 303.441925,106.699402 296.211578,117.306770 
	C292.011475,123.468613 287.863831,129.666229 283.312073,135.648788 
	C282.018829,134.807617 281.106079,134.165421 280.193359,133.523224 
	C279.462555,134.626450 278.731750,135.729660 278.000916,136.832870 
	C275.956573,136.881058 273.912201,136.929260 271.435242,136.902924 
M310.059326,90.767624 
	C311.662842,89.318130 313.266327,87.868637 315.799988,85.578323 
	C309.702850,85.578323 305.160797,85.578323 300.618774,85.578323 
	C300.529022,85.953522 300.439270,86.328712 300.349518,86.703911 
	C303.341431,88.102974 306.333344,89.502037 310.059326,90.767624 
M303.009399,102.435829 
	C303.669525,100.925629 304.329620,99.415428 305.307861,97.177422 
	C300.077057,97.595665 299.407593,101.463432 297.430756,103.900177 
	C298.371826,104.447601 299.450378,105.574440 300.218292,105.392204 
	C301.127869,105.176331 301.769623,103.831886 303.009399,102.435829 
z"/>
<path fill="#F9B6C2" opacity="1.000000" stroke="none" 
	d="
M238.001770,93.999161 
	C236.171066,96.096840 234.446533,98.300697 232.482132,100.264641 
	C230.152496,102.593727 227.520905,102.815002 224.259018,101.777260 
	C221.891312,101.023994 219.085800,101.651001 216.475494,101.655128 
	C213.517807,101.659805 210.560120,101.656204 207.602432,101.656204 
	C207.493256,100.938217 207.384064,100.220230 207.274887,99.502243 
	C208.275772,99.008972 209.276642,98.515709 210.843811,98.231964 
	C211.979950,98.613205 212.549789,98.784920 213.119644,98.956642 
	C218.816498,98.640572 224.516830,98.372139 230.206497,97.957611 
	C231.070709,97.894646 232.209763,97.373825 232.672943,96.692001 
	C237.270844,89.923721 241.753220,83.076950 246.933655,76.198708 
	C249.657471,80.255112 253.081390,78.220398 256.094818,78.032959 
	C250.691696,86.207161 245.492569,94.526688 239.810989,102.502525 
	C236.249847,107.501709 230.605118,108.950523 224.728485,108.975510 
	C204.809265,109.060211 184.889526,109.021347 164.460098,108.743134 
	C163.632996,107.637955 163.315781,106.819336 162.998581,106.000717 
	C164.905151,105.666939 166.810593,105.050804 168.718460,105.043198 
	C187.146286,104.969688 205.575531,105.107597 224.002075,104.936943 
	C230.183731,104.879692 236.399216,104.196411 240.132156,97.132896 
	C242.427948,93.813370 244.262131,90.959167 246.640610,87.257973 
	C240.307281,87.009163 239.921265,91.345551 238.001770,93.999161 
z"/>
<path fill="#F6B9C5" opacity="1.000000" stroke="none" 
	d="
M213.171814,98.606941 
	C212.549789,98.784920 211.979950,98.613205 211.203217,98.220131 
	C213.859360,93.974434 216.801270,90.002930 219.548004,85.900742 
	C220.710236,84.164993 222.232986,82.168266 222.267044,80.266441 
	C222.414902,72.008743 223.081650,63.559643 221.625916,55.530746 
	C220.189865,47.610512 208.252014,34.746681 197.013672,33.934895 
	C192.897446,33.637566 188.813843,32.703880 184.761444,31.843451 
	C183.800903,31.639503 183.025909,30.561638 182.084015,29.526018 
	C194.649841,28.058504 205.861526,32.142834 215.277405,40.081432 
	C222.544617,46.208473 225.870453,55.129528 226.919403,64.482254 
	C228.222427,76.100235 224.620819,86.421448 216.929977,95.239586 
	C215.897995,96.422821 214.469101,97.259880 213.171814,98.606941 
z"/>
<path fill="#F6AFBC" opacity="1.000000" stroke="none" 
	d="
M294.085632,81.419243 
	C293.810455,82.357628 293.552887,82.892708 293.711914,82.562347 
	C291.094330,80.049278 288.486816,77.545845 285.447571,74.645874 
	C283.363800,69.769241 280.455811,72.954895 277.769958,72.846085 
	C269.821625,70.938812 266.092224,67.558029 265.996460,62.161221 
	C272.350250,62.425949 278.889374,61.836445 285.012451,63.164745 
	C293.256470,64.953156 296.782654,72.903053 294.085632,81.419243 
z"/>
<path fill="#F7B5C1" opacity="1.000000" stroke="none" 
	d="
M162.633820,106.098389 
	C163.315781,106.819336 163.632996,107.637955 163.995544,108.783676 
	C164.031387,116.753258 163.838730,124.401711 164.087112,132.035812 
	C164.217590,136.046097 162.794861,137.236725 158.877792,137.073898 
	C151.911636,136.784348 144.915573,136.777313 137.950073,137.074753 
	C133.868866,137.249023 132.741959,135.729645 132.935226,131.869324 
	C133.217361,126.234253 133.015030,120.574928 133.094452,114.462662 
	C133.779419,115.375099 134.775391,116.712387 134.916931,118.134712 
	C135.195496,120.933891 134.999008,123.780296 135.000107,126.607162 
	C135.003021,134.199997 135.490829,134.722855 143.136948,134.558853 
	C147.277542,134.470047 151.421097,133.951294 155.550354,134.071487 
	C159.158646,134.176529 160.151550,132.657913 160.048828,129.320541 
	C159.869858,123.506065 159.817490,117.672874 160.106796,111.867195 
	C160.202545,109.945679 161.513626,108.084709 162.633820,106.098389 
z"/>
<path fill="#F8B7C3" opacity="1.000000" stroke="none" 
	d="
M265.585693,62.091564 
	C266.092224,67.558029 269.821625,70.938812 277.746399,73.200981 
	C276.373779,76.227722 274.749908,78.638466 272.817139,80.875519 
	C270.323578,78.765099 268.138947,76.828377 265.954285,74.891655 
	C266.403717,74.040192 266.853119,73.188728 267.836609,71.325493 
	C265.100830,72.262192 262.944397,73.000534 260.094971,73.867416 
	C258.507568,72.614708 257.613159,71.233452 256.264038,69.149902 
	C255.417755,69.112679 253.646912,69.034790 251.876068,68.956894 
	C255.125977,64.376564 259.461700,61.878479 265.585693,62.091564 
z"/>
<path fill="#F6AFBC" opacity="1.000000" stroke="none" 
	d="
M265.638092,75.031647 
	C268.138947,76.828377 270.323578,78.765099 272.759521,81.229050 
	C271.021484,84.207848 269.032166,86.659431 266.974945,88.804321 
	C265.536133,88.348579 264.165253,88.199524 262.650818,88.034866 
	C261.873474,86.839439 260.914307,85.364433 259.955170,83.889420 
	C261.744080,80.983498 263.532990,78.077568 265.638092,75.031647 
z"/>
<path fill="#F6B9C5" opacity="1.000000" stroke="none" 
	d="
M259.632324,84.022919 
	C260.914307,85.364433 261.873474,86.839439 262.650818,88.034866 
	C264.165253,88.199524 265.536133,88.348579 266.841064,89.126015 
	C264.529572,93.212509 262.284058,96.670631 260.038513,100.128746 
	C259.758362,98.279442 259.478210,96.430138 259.202728,94.611588 
	C257.504211,94.253700 255.809967,93.896706 254.034729,93.220108 
	C255.738998,89.985802 257.524231,87.071114 259.632324,84.022919 
z"/>
<path fill="#F6AFBC" opacity="1.000000" stroke="none" 
	d="
M251.560638,69.086624 
	C253.646912,69.034790 255.417755,69.112679 256.264038,69.149902 
	C257.613159,71.233452 258.507568,72.614708 259.757324,74.020020 
	C259.005035,75.359802 257.897369,76.675529 256.442261,78.012100 
	C253.081390,78.220398 249.657471,80.255112 247.251495,76.052795 
	C248.351044,73.712486 249.798126,71.464417 251.560638,69.086624 
z"/>
<path fill="#F6B9C5" opacity="1.000000" stroke="none" 
	d="
M245.576721,105.093697 
	C248.947235,107.688965 246.262024,110.763123 245.144409,112.312378 
	C242.731049,115.657837 239.034622,118.077705 235.522827,120.938202 
	C237.260727,117.355728 239.254776,113.659485 241.453171,110.089073 
	C242.525803,108.347023 243.979385,106.839546 245.576721,105.093697 
z"/>
<path fill="#F6B9C5" opacity="1.000000" stroke="none" 
	d="
M235.981918,128.423355 
	C236.406586,127.866432 237.069061,127.395264 237.283676,127.549057 
	C241.205185,130.359283 245.072937,133.244507 248.974426,136.466797 
	C243.432510,137.101730 237.659531,133.536377 235.981918,128.423355 
z"/>
<path fill="#F8B7C3" opacity="1.000000" stroke="none" 
	d="
M278.386658,136.907013 
	C278.731750,135.729660 279.462555,134.626450 280.193359,133.523224 
	C281.106079,134.165421 282.018829,134.807617 282.989594,135.791534 
	C281.622559,136.415878 280.197449,136.698517 278.386658,136.907013 
z"/>
<path fill="none" opacity="1.000000" stroke="none" 
	d="
M167.002014,83.161606 
	C165.873932,83.045677 164.745834,82.929749 163.799698,82.832520 
	C163.799698,73.673645 163.799698,64.632324 163.799698,55.009747 
	C171.495468,55.009747 178.759094,55.009747 186.631317,55.390633 
	C191.937012,56.551476 192.905396,60.764107 194.869919,64.059685 
	C194.918243,66.744003 194.966568,69.428329 194.944077,72.876938 
	C193.567581,75.725151 192.261887,77.809059 190.956207,79.892975 
	C189.210205,80.599739 187.464203,81.306511 184.930267,82.006409 
	C178.428879,82.386902 172.715454,82.774254 167.002014,83.161606 
z"/>
<path fill="#F8B7C3" opacity="1.000000" stroke="none" 
	d="
M167.022598,83.551155 
	C172.715454,82.774254 178.428879,82.386902 184.568146,82.077049 
	C183.876617,86.266220 180.668976,87.462128 177.084137,86.882278 
	C173.677505,86.331253 168.967743,89.602600 167.022598,83.551155 
z"/>
<path fill="#F6B9C5" opacity="1.000000" stroke="none" 
	d="
M195.208008,64.000008 
	C192.905396,60.764107 191.937012,56.551476 187.093307,55.449577 
	C187.576385,54.499989 188.206039,53.872337 188.835678,53.244682 
	C191.748032,56.181835 194.660400,59.118988 197.572769,62.056137 
	C196.897217,62.684200 196.221649,63.312267 195.208008,64.000008 
z"/>
<path fill="#F9ACB9" opacity="1.000000" stroke="none" 
	d="
M238.225830,94.207672 
	C239.921265,91.345551 240.307281,87.009163 246.640610,87.257973 
	C244.262131,90.959167 242.427948,93.813370 240.297043,96.835220 
	C239.483505,96.140648 238.966690,95.278419 238.225830,94.207672 
z"/>
<path fill="#F6B9C5" opacity="1.000000" stroke="none" 
	d="
M191.023895,80.197929 
	C192.261887,77.809059 193.567581,75.725151 195.018356,73.319466 
	C195.783173,74.298996 197.264313,76.269493 196.867111,76.780792 
	C195.466873,78.583221 194.999802,82.483009 191.023895,80.197929 
z"/>
<path fill="none" opacity="1.000000" stroke="none" 
	d="
M287.034943,91.108963 
	C292.149994,91.108955 297.265015,91.108955 302.496979,91.108955 
	C296.604279,99.914703 290.804718,108.581192 284.639343,117.724350 
	C283.171753,119.769424 282.069977,121.337837 280.630829,123.065285 
	C279.492737,129.190979 274.763641,127.773354 270.999115,128.168854 
	C268.210846,128.168854 265.422577,128.168854 262.905731,128.168854 
	C261.435150,124.295929 261.705414,121.963432 266.485626,121.567444 
	C267.793274,121.459114 268.873810,118.432068 270.030548,116.725433 
	C271.371033,114.747719 272.680511,112.749023 274.375122,110.265778 
	C277.867004,104.859604 280.987183,99.947090 284.407471,94.915726 
	C285.483398,93.567574 286.259186,92.338272 287.034943,91.108963 
z"/>
<path fill="none" opacity="1.000000" stroke="none" 
	d="
M259.902588,100.444656 
	C262.284058,96.670631 264.529572,93.212509 266.908997,89.432709 
	C269.032166,86.659431 271.021484,84.207848 273.068420,81.402740 
	C274.749908,78.638466 276.373779,76.227722 278.021210,73.462082 
	C280.455811,72.954895 283.363800,69.769241 285.095245,74.626740 
	C283.521729,78.081276 281.868835,81.158417 279.771240,84.709076 
	C278.181366,87.106255 277.036194,89.029907 275.575012,91.105110 
	C272.826691,95.135956 270.394287,99.015251 267.961914,102.894547 
	C265.212555,106.698212 262.463196,110.501884 259.780701,114.213043 
	C257.352692,112.989899 255.522629,112.067970 252.939926,110.766884 
	C255.246582,107.385872 257.506592,104.073212 259.902588,100.444656 
z"/>
<path fill="#F8B7C3" opacity="1.000000" stroke="none" 
	d="
M267.981598,103.223297 
	C270.394287,99.015251 272.826691,95.135956 275.886902,91.177208 
	C277.086609,96.188202 280.364929,96.058945 284.107361,95.034576 
	C280.987183,99.947090 277.867004,104.859604 274.427734,109.906357 
	C273.924103,110.032684 273.739594,110.024788 273.277527,110.008453 
	C273.000000,110.000000 272.998108,109.998215 272.998108,109.998215 
	C273.634583,107.266693 274.270996,104.535172 274.907440,101.803650 
	C274.048584,101.137390 273.189697,100.471123 272.330841,99.804863 
	C271.559631,101.458382 270.788391,103.111900 270.017212,104.765442 
	C269.345245,104.360992 268.673248,103.956520 267.981598,103.223297 
z"/>
<path fill="#F8B7C3" opacity="1.000000" stroke="none" 
	d="
M270.986023,128.523010 
	C274.763641,127.773354 279.492737,129.190979 280.830017,123.331154 
	C282.577728,124.959450 283.788879,126.480896 285.000000,128.002350 
	C284.427765,130.680145 283.181305,131.567749 280.104034,131.428406 
	C277.357513,131.304016 274.528656,132.996201 271.369934,133.942963 
	C270.993439,132.291824 270.983185,130.584488 270.986023,128.523010 
z"/>
<path fill="#F6B9C5" opacity="1.000000" stroke="none" 
	d="
M245.108932,122.038322 
	C241.265320,119.116447 244.233368,117.949615 246.587860,117.179611 
	C249.797531,116.129921 255.269913,119.032547 256.431824,122.279465 
	C257.606903,125.563194 255.356583,124.449883 253.408356,123.709473 
	C250.783630,120.354980 248.281677,119.114998 245.108932,122.038322 
z"/>
<path fill="none" opacity="1.000000" stroke="none" 
	d="
M245.059845,122.447250 
	C248.281677,119.114998 250.783630,120.354980 253.085587,123.656342 
	C252.230270,127.114723 249.724411,127.681564 247.254807,126.805130 
	C246.175568,126.422119 245.739105,124.227898 245.059845,122.447250 
z"/>
<path fill="#F8B7C3" opacity="1.000000" stroke="none" 
	d="
M273.000610,110.000824 
	C272.781494,110.200905 272.574036,110.417633 272.333130,110.586731 
	C272.275177,110.627396 272.106384,110.510063 271.988556,110.465393 
	C272.190735,110.322136 272.392944,110.178879 272.796631,110.016922 
	C272.998108,109.998215 273.000000,110.000000 273.000610,110.000824 
z"/>
<path fill="#F9ACB9" opacity="1.000000" stroke="none" 
	d="
M284.407471,94.915726 
	C280.364929,96.058945 277.086609,96.188202 276.202881,91.025658 
	C277.036194,89.029907 278.181366,87.106255 279.640320,85.031090 
	C280.179779,85.756569 280.405518,86.633553 280.556396,87.219742 
	C282.800934,86.725967 284.697174,86.308823 286.593445,85.891678 
	C286.741699,87.388695 286.889984,88.885712 287.036621,90.745850 
	C286.259186,92.338272 285.483398,93.567574 284.407471,94.915726 
z"/>
<path fill="#F9ACB9" opacity="1.000000" stroke="none" 
	d="
M285.289856,127.831192 
	C283.788879,126.480896 282.577728,124.959450 281.167419,123.172127 
	C282.069977,121.337837 283.171753,119.769424 284.579895,118.081238 
	C286.995117,117.760956 289.103882,117.560455 292.874603,117.201927 
	C289.955902,121.386253 287.767792,124.523140 285.289856,127.831192 
z"/>
<path fill="#F9ACB9" opacity="1.000000" stroke="none" 
	d="
M309.692291,90.834366 
	C306.333344,89.502037 303.341431,88.102974 300.349518,86.703911 
	C300.439270,86.328712 300.529022,85.953522 300.618774,85.578323 
	C305.160797,85.578323 309.702850,85.578323 315.799988,85.578323 
	C313.266327,87.868637 311.662842,89.318130 309.692291,90.834366 
z"/>
<path fill="#F9ACB9" opacity="1.000000" stroke="none" 
	d="
M302.768433,102.706215 
	C301.769623,103.831886 301.127869,105.176331 300.218292,105.392204 
	C299.450378,105.574440 298.371826,104.447601 297.430756,103.900177 
	C299.407593,101.463432 300.077057,97.595665 305.307861,97.177422 
	C304.329620,99.415428 303.669525,100.925629 302.768433,102.706215 
z"/>
</svg>